<svg width="14" height="14" viewBox="0 0 14 14" fill="none" xmlns="http://www.w3.org/2000/svg">
<path d="M12.8333 2.91666C12.8333 1.95182 12.0481 1.16666 11.0833 1.16666H2.91663C1.95179 1.16666 1.16663 1.95182 1.16663 2.91666V4.56807C1.16663 5.18232 1.38946 5.74057 1.74996 6.16991V11.0833C1.74996 11.7267 2.27321 12.25 2.91663 12.25H11.0833C11.7267 12.25 12.25 11.7267 12.25 11.0833V6.16932C12.6105 5.74057 12.8333 5.18232 12.8333 4.56749V2.91666ZM11.6666 2.91666V4.56807C11.6666 5.23307 11.1714 5.80007 10.5635 5.83216L10.5 5.83332C9.85654 5.83332 9.33329 5.31007 9.33329 4.66666V2.33332H11.0833C11.4053 2.33332 11.6666 2.59524 11.6666 2.91666ZM5.83329 2.33332H8.16663V4.66666C8.16663 5.31007 7.64338 5.83332 6.99996 5.83332C6.35654 5.83332 5.83329 5.31007 5.83329 4.66666V2.33332ZM2.33329 2.91666C2.33329 2.59524 2.59463 2.33332 2.91663 2.33332H4.66663V4.66666C4.66663 5.31007 4.14338 5.83332 3.49996 5.83332L3.43638 5.83157C2.82854 5.80007 2.33329 5.23307 2.33329 4.56807V2.91666ZM5.83329 11.0833V9.33332H8.16663V11.0833H5.83329ZM9.33329 11.0833V9.33332C9.33329 8.68991 8.81004 8.16666 8.16663 8.16666H5.83329C5.18988 8.16666 4.66663 8.68991 4.66663 9.33332V11.0833H2.91663V6.92357C3.06479 6.96266 3.21821 6.98832 3.37571 6.99649C3.72739 7.01558 4.07882 6.95456 4.40349 6.81805C4.72816 6.68153 5.01759 6.47308 5.24996 6.20841C5.67754 6.69374 6.30404 6.99999 6.99996 6.99999C7.69588 6.99999 8.32238 6.69374 8.74996 6.20841C8.98233 6.47308 9.27176 6.68153 9.59643 6.81805C9.9211 6.95456 10.2725 7.01558 10.6242 6.99649C10.7823 6.98832 10.9351 6.96266 11.0833 6.92357V11.0833H9.33329Z" fill="#090302"/>
</svg>
